# xmcd
#
# Track frame offsets:
#	150
#	14741
#	27225
#	45505
#	56306
#	70044
#	85474
#	95621
#	108686
#	124823
#	138477
#	154176
#	169895
#	187684
#
# Disc length: 2909 seconds
#
# Revision: 1
# Processed by: cddbd v1.5.1PL2 Copyright (c) Steve Scherf et al.
# Submitted via: audiograbber 1.83.01
#
DISCID=bb0b5b0e
DTITLE=Annet Roons - Everytime
DYEAR=2002
DGENRE=Country
TTITLE0=Don And Melissa
TTITLE1=Love Does It
TTITLE2=Everytime
TTITLE3=Kiss Or Kill
TTITLE4=He's  My Man
TTITLE5=Last Day Of Forever
TTITLE6=Tears Like A River
TTITLE7=The Best I Can
TTITLE8=In My Dream
TTITLE9=What Goes Up Must Come Down
TTITLE10=Little Eyes
TTITLE11=The Next Train
TTITLE12=Jord
TTITLE13=I'm Checking Out
EXTD=
EXTT0=
EXTT1=
EXTT2=
EXTT3=
EXTT4=
EXTT5=
EXTT6=
EXTT7=
EXTT8=
EXTT9=
EXTT10=
EXTT11=
EXTT12=
EXTT13=
PLAYORDER=
